<svg data-v-423bf9ae="" xmlns="http://www.w3.org/2000/svg" viewBox="0 0 660 90" class="iconLeft"><!----><!----><!----><g data-v-423bf9ae="" id="e6fb21d2-367a-454a-bc31-a5a629017531" fill="white" transform="matrix(5.529953722625812,0,0,5.529953722625812,108.61752438485945,0.6221194180388991)"><path d="M7.15 13.27L8.60 13.27L5.07 3.08L3.79 3.08L0.25 13.27L1.43 13.27L2.62 9.77L5.98 9.77ZM4.31 4.79L5.66 8.82L2.94 8.82ZM14.67 13.40L15.90 13.24C15.60 12.73 15.47 11.86 15.47 11.27L15.47 2.60L14.13 2.60L14.32 3.43L14.32 6.78C13.85 6.34 13.20 6.16 12.57 6.16C10.47 6.16 9.46 7.95 9.46 9.86C9.46 11.61 10.39 13.45 12.35 13.45C13.15 13.45 13.92 13.08 14.41 12.45C14.45 12.77 14.53 13.09 14.67 13.40ZM14.32 9.16L14.32 11.51C13.92 11.97 13.34 12.43 12.70 12.43C11.21 12.43 10.70 11.05 10.70 9.77C10.70 8.54 11.13 7.11 12.60 7.11C13.82 7.11 14.32 8.05 14.32 9.16ZM23.62 12.98L23.38 12.25C23.31 12.28 22.75 12.45 22.72 12.45C22.46 12.45 22.41 12.25 22.41 11.91L22.41 8.44C22.41 6.99 21.66 6.15 20.19 6.15C19.21 6.15 18.28 6.44 17.51 7.06L18.09 7.88C18.55 7.35 19.40 7.06 20.09 7.06C21 7.06 21.25 7.67 21.25 8.46L21.25 9.20C19.63 9.21 17.26 9.48 17.26 11.59C17.26 12.74 18.07 13.43 19.18 13.43C19.98 13.43 20.73 13.02 21.28 12.45C21.36 12.98 21.70 13.40 22.27 13.40C22.72 13.40 23.21 13.13 23.62 12.98ZM21.25 10.11L21.25 10.56C21.25 11.48 20.55 12.45 19.56 12.45C18.91 12.45 18.45 12.17 18.45 11.55C18.45 10.16 20.24 10.11 21.25 10.11ZM32.86 13.27L34.02 13.27L34.02 8.62C34.02 7.18 33.43 6.15 31.89 6.15C31.08 6.15 30.28 6.75 29.72 7.31C29.33 6.50 28.70 6.15 27.80 6.15C27.06 6.15 26.28 6.69 25.77 7.18C25.73 6.86 25.63 6.51 25.51 6.22L24.23 6.36C24.54 6.86 24.68 7.64 24.68 8.22L24.68 13.27L25.84 13.27L25.84 8.11C26.28 7.71 26.99 7.18 27.61 7.18C28.70 7.18 28.77 8.15 28.77 9.00L28.77 13.27L29.93 13.27L29.93 8.62C29.93 8.46 29.92 8.27 29.90 8.13C30.37 7.70 31.04 7.18 31.70 7.18C32.77 7.18 32.86 8.16 32.86 9.00ZM36.05 7.04L36.46 7.04C36.48 6.92 36.85 5.46 36.85 5.43L36.85 2.94L35.67 2.94L35.67 5.43C35.67 5.46 36.02 6.92 36.05 7.04ZM37.72 12.01L37.23 12.87C37.94 13.23 38.50 13.45 39.31 13.45C40.63 13.45 41.82 12.91 41.82 11.42C41.82 9.25 38.54 9.52 38.54 7.98C38.54 7.24 39.33 7.03 39.93 7.03C40.36 7.03 40.91 7.27 41.26 7.53L41.66 6.64C41.12 6.30 40.45 6.15 39.80 6.15C38.56 6.15 37.35 6.79 37.35 8.18C37.35 10.29 40.61 10.04 40.61 11.59C40.61 12.38 39.83 12.57 39.20 12.57C38.71 12.57 38.12 12.29 37.72 12.01ZM54.98 13.27L56.27 13.27L56.27 3.08L54.57 3.08L51.65 11.02L48.68 3.08L46.79 3.08L47.00 4.00L47.00 13.27L48.06 13.27L48.06 4.94L51.13 13.29L51.91 13.29L54.98 4.94ZM61.24 13.45C63.31 13.45 64.39 11.70 64.39 9.80C64.39 7.90 63.31 6.15 61.24 6.15C59.21 6.15 58.10 7.92 58.10 9.80C58.10 11.69 59.18 13.45 61.24 13.45ZM61.24 12.57C59.88 12.57 59.33 10.91 59.33 9.80C59.33 8.61 59.79 7.03 61.24 7.03C62.66 7.03 63.15 8.62 63.15 9.80C63.15 10.99 62.69 12.57 61.24 12.57ZM67.63 13.36L68.70 13.36L71.19 6.31L70.10 6.31L68.25 11.61L66.39 6.31L65.16 6.31ZM73.95 3.98C73.95 3.51 73.56 3.12 73.09 3.12C72.63 3.12 72.25 3.51 72.25 3.98C72.25 4.44 72.63 4.83 73.09 4.83C73.57 4.83 73.95 4.45 73.95 3.98ZM72.53 13.27L73.70 13.27L73.70 6.31L72.37 6.31C72.38 6.40 72.53 7.11 72.53 7.14ZM81.07 12.67L80.56 11.83C80.09 12.22 79.35 12.47 78.75 12.47C77.38 12.47 76.72 11.02 76.72 9.83L76.72 9.69L80.50 9.69C81.06 9.69 81.21 9.28 81.21 8.79C81.21 7.17 80.12 6.15 78.51 6.15C76.47 6.15 75.49 8.05 75.49 9.87C75.49 11.86 76.64 13.45 78.72 13.45C79.56 13.45 80.42 13.20 81.07 12.67ZM79.73 8.82L76.80 8.82C76.96 7.95 77.67 7.03 78.62 7.03C79.48 7.03 79.97 7.73 79.97 8.53C79.97 8.74 79.95 8.82 79.73 8.82ZM82.99 13.27L86.31 13.27C89.46 13.27 90.93 11.14 90.93 8.20C90.93 4.52 88.82 3.08 85.41 3.08L82.80 3.08C82.81 3.16 82.99 3.98 82.99 4.00ZM86.14 12.31L84.29 12.31L84.29 4.05L85.32 4.05C88.10 4.05 89.57 5.22 89.57 8.18C89.57 10.44 88.69 12.31 86.14 12.31ZM92.76 13.27L95.54 13.27C97.52 13.27 99.53 12.85 99.53 10.42C99.53 9.06 98.73 7.92 97.34 7.71C98.43 7.52 99.06 6.50 99.06 5.45C99.06 3.56 97.57 3.08 95.97 3.08L92.57 3.08C92.58 3.16 92.76 3.98 92.76 4.00ZM95.56 7.29L94.07 7.29L94.07 4.05L95.93 4.05C96.88 4.05 97.71 4.37 97.71 5.47C97.71 6.85 96.87 7.29 95.56 7.29ZM95.62 12.31L94.07 12.31L94.07 8.26L95.62 8.26C96.85 8.26 98.14 8.78 98.14 10.21C98.14 11.87 97.09 12.31 95.62 12.31Z"></path></g><!----><g data-v-423bf9ae="" id="5a73a619-6547-4037-b9fe-093a48693609" transform="matrix(2.8125,0,0,2.8125,0,0)" stroke="none" fill="white"><path d="M0 16.024L15.976 32 32 15.976 16.024 0 0 16.024zm15.989 7.323l-7.336-7.336 14.694-.022-7.358 7.358z"></path></g><!----></svg>